<?xml version="1.0" encoding="UTF-8" standalone="no"?>
<svg
   xmlns:svg="http://www.w3.org/2000/svg"
   xmlns="http://www.w3.org/2000/svg"
   xmlns:sodipodi="http://sodipodi.sourceforge.net/DTD/sodipodi-0.dtd"
   xmlns:inkscape="http://www.inkscape.org/namespaces/inkscape"
   width="256"
   height="256"
   version="1.1"
   inkscape:version="0.92.5 (2060ec1f9f, 2020-04-08)"
   sodipodi:docname="hmm.svg">
  <g
      inkscape:label="Layer 1"
      inkscape:groupmode="layer"
      transform="translate(0,-796.36218)">
    <circle
        style="opacity:1;fill:#ffffff;fill-opacity:0.13333334;stroke:none;stroke-width:0.33683664;stroke-linecap:round;stroke-linejoin:round;stroke-miterlimit:10;stroke-dasharray:none;stroke-opacity:1"
        cx="128"
        cy="914.36218"
        r="115.83158"/>
    <path
        inkscape:connector-curvature="0"
        style="fill:#ffffff;fill-opacity:0.66666667;stroke:none;stroke-width:0.17678882"
        d="m 160.99819,881.36394 c -0.19516,-0.004 -0.39997,-10e-4 -0.61699,0.007 -1.28999,0.0483 -1.61964,0.12447 -2.535,0.58646 -3.48887,1.76087 -4.90358,6.05653 -2.98562,9.06504 0.58377,0.91571 1.97871,1.91879 3.00795,2.16352 1.86822,0.44423 3.6688,0.0479 5.30494,-1.16779 2.35141,-1.74711 3.36237,-4.57818 2.54888,-7.13873 -0.36253,-1.14108 -0.70786,-1.66741 -1.57216,-2.39788 -0.91635,-0.77447 -1.78584,-1.09336 -3.152,-1.11748 z"
        sodipodi:nodetypes="ccsscccccc"/>
    <path
        inkscape:connector-curvature="0"
        style="fill:#ffffff;fill-opacity:0.66666667;stroke:none;stroke-width:0.17679121"
        d="m 90.998187,872.36358 c -0.195164,-0.003 -0.399975,-10e-4 -0.616996,0.007 -1.28999,0.0483 -1.619638,0.12448 -2.535,0.58649 -3.488859,1.76091 -4.903574,6.05669 -2.985618,9.06528 0.583767,0.91573 1.978718,1.91883 3.007956,2.16357 1.868218,0.44425 3.668797,0.0479 5.304939,-1.16781 2.351404,-1.74717 3.362367,-4.57831 2.548874,-7.13892 -0.362525,-1.14112 -0.707858,-1.66745 -1.572154,-2.39795 -0.916354,-0.77449 -1.785846,-1.09339 -3.152001,-1.11751 z"
        sodipodi:nodetypes="ccsscccccc"/>
    <g
        transform="matrix(0.52037057,0,0,0.52037057,18.947592,468.5466)"
        style="fill:#b68957;fill-opacity:1;stroke:none">
      <path
          style="fill:#ffffff;fill-opacity:1;stroke:none"
          d="m 97,1118.4858 c -18.26224,-4.649 -33.07559,-16.5922 -40.99532,-33.0522 -4.268242,-8.871 -11.259031,-32.2828 -13.532496,-45.3199 -2.878664,-16.5074 -1.346341,-38.2752 4.564812,-64.84641 1.629652,-7.32545 2.962421,-15.9098 2.961709,-19.07635 -0.0013,-5.98777 -3.394433,-21.45977 -6.944048,-31.6639 -2.954168,-8.49239 -2.811803,-9.00679 3.195343,-11.54571 10.7528,-4.54468 20.60608,-3.74703 27.39999,2.2181 4.91343,4.31404 7.25905,9.612 13.82863,31.23416 3.17508,10.45 6.81917,21.07888 8.09797,23.61974 4.09661,8.13959 11.34795,12.8637 20.92538,13.63248 5.72904,0.45987 9.27996,-0.5155 59.54519,-16.35594 57.47319,-18.11194 61.10031,-18.9165 66.63851,-14.78164 7.00417,5.22936 8.95324,12.36838 5.38768,19.73384 -1.19436,2.46722 -3.26041,5.19929 -4.59123,6.07128 -1.33082,0.87198 -16.60872,5.94236 -33.95089,11.2675 C 191.11671,995.27526 178,999.80071 178,1000.4996 c 0,0.6581 1.57547,2.3983 3.50105,3.867 4.64027,3.5393 6.76606,7.9097 6.85545,14.0941 0.0522,3.6137 -0.59557,6.2129 -2.2454,9.0092 -2.15404,3.6508 -2.19628,4.0023 -0.59438,4.9469 8.61256,5.0783 11.37958,8.3248 12.17969,14.29 0.78519,5.8541 -0.3721,10.6879 -3.42845,14.3202 -2.93085,3.4831 -2.94804,3.4499 3.69494,7.1318 8.67427,4.8076 9.19674,20.9646 0.86968,26.894 -1.60646,1.1439 -18.98848,7.0439 -38.62671,13.1111 -34.92459,10.7898 -35.94656,11.0387 -46.70587,11.3766 -7.22597,0.2269 -12.88701,-0.1349 -16.5,-1.0547 z m 124.25,-33.0697 c -1.40171,-0.9942 -2.25,-2.6335 -2.25,-4.3481 0,-5.3267 1.58746,-6.152 14.79081,-7.6898 83.47771,-9.7227 153.26459,-66.338 179.74439,-145.81923 C 447.85507,824.54511 400.36107,712.70753 302.14896,665.26968 261.02981,645.40855 212.21558,639.35044 167,648.49697 91.86865,663.69508 29.665275,718.68159 5.471746,791.28463 -15.151678,853.17404 -6.895543,919.57052 28.429575,975.91327 32.043309,981.67709 35,986.98504 35,987.70872 c 0,1.87984 -4.597431,6.22487 -6.586468,6.22487 -2.636931,0 -7.38279,-5.76537 -14.187565,-17.23534 -15.151644,-25.53927 -24.807637,-52.19089 -29.921938,-82.5879 -2.547611,-15.14181 -2.547611,-54.21171 0,-69.35352 8.292353,-49.28585 30.110986,-92.20147 64.214363,-126.30485 34.103378,-34.10337 77.018998,-55.92201 126.304848,-64.21436 15.14181,-2.54761 54.21171,-2.54761 69.35352,0 49.28585,8.29235 92.20147,30.11098 126.30485,64.21436 34.102,34.102 55.90097,76.97639 64.21819,126.30485 2.83124,16.79171 2.52633,55.26778 -0.57594,72.67676 -9.47949,53.19607 -35.8451,100.02125 -75.58282,134.23471 -31.96584,27.5219 -71.7736,46.1325 -112.54104,52.6142 -16.81197,2.6729 -22.23002,2.9211 -24.75,1.1336 z M 254.5,933.88263 c -21.02912,-10.20125 -39.2068,-14.82454 -61.5,-15.64186 -17.15696,-0.62901 -27.6268,0.39571 -41.81812,4.09291 -10.96588,2.8569 -13.50218,2.20185 -13.98865,-3.61283 -0.40011,-4.78229 1.5879,-6.08593 14.13428,-9.26858 33.83037,-8.58178 73.13279,-3.98386 107.4542,12.57088 10.97203,5.29229 13.06003,7.56629 11.27014,12.27406 -1.81422,4.77176 -5.03772,4.68583 -15.55185,-0.41458 z m 4.7376,-90.06047 c -20.62809,-10.21072 -23.08303,-48.27281 -4.45019,-68.99702 8.53922,-9.49766 21.4775,-12.89228 30.8408,-8.09171 5.57244,2.857 11.82344,10.18866 14.5395,17.05307 3.25419,8.2244 3.2593,24.8941 0.0105,34.33753 -4.44472,12.91981 -12.98856,22.97887 -22.49419,26.48348 -5.26792,1.94222 -13.65774,1.58503 -18.44646,-0.78535 z m 15.30377,-11.76823 c 13.56516,-6.1618 20.12486,-30.78403 12.43391,-46.67141 -2.3313,-4.81582 -7.23037,-8.44893 -11.39297,-8.44893 -11.88634,0 -23.39383,21.41349 -20.59692,38.32736 1.45932,8.82498 4.10017,13.53419 9.40317,16.76787 3.83675,2.33957 5.05091,2.34258 10.15281,0.0251 z m -153.6589,-6.91308 c -20.41634,-10.66562 -22.46602,-48.43066 -3.73165,-68.75505 13.71097,-14.87465 33.53868,-12.89441 42.57688,4.25225 11.56647,21.94314 3.06261,54.24834 -16.90685,64.2272 -8.16249,4.07884 -14.5056,4.15853 -21.93838,0.2756 z m 15.6589,-11.08692 c 10.49875,-4.76892 18.19661,-23.26704 15.57777,-37.43368 -4.14627,-22.42924 -21.92018,-23.65291 -31.76163,-2.18666 -2.11883,4.62162 -2.84532,7.95271 -3.16233,14.5 -0.63953,13.2082 2.64121,21.63931 9.82475,25.24845 4.27564,2.14815 4.51742,2.1449 9.52144,-0.12811 z M 248.27992,758.9135 c -2.70384,-1.08798 -3.91805,-5.28394 -2.45699,-8.49064 1.2541,-2.75243 13.79115,-7.16852 28.71335,-10.11407 18.0679,-3.5665 50.76929,-1.86804 66.95104,3.47732 6.07569,2.007 7.89638,5.38674 5.15541,9.56998 -2.0592,3.14275 -3.56681,3.1905 -15.74094,0.49863 -6.32079,-1.39761 -14.69415,-2.25853 -25.55161,-2.62713 -18.50718,-0.62828 -30.28885,0.86519 -45.56952,5.7765 -5.01305,1.61122 -9.15199,2.90098 -9.19764,2.86611 -0.0457,-0.0349 -1.08206,-0.46538 -2.3031,-0.9567 z M 72.22251,737.37689 c -2.18599,-1.53113 -2.82875,-4.69988 -1.60188,-7.89707 1.71007,-4.45635 22.35675,-16.06398 33.80628,-19.00599 23.48463,-6.03449 52.30392,0.57236 68.82309,15.77774 4.4906,4.13346 5.1064,8.61855 1.52749,11.12532 -3.33367,2.33499 -4.7681,1.96714 -11.25792,-2.88704 -12.58322,-9.41186 -24.75722,-13.5267 -40.01957,-13.5267 -15.25483,0 -26.42531,3.79963 -39.81615,13.54342 -6.64561,4.83566 -8.12608,5.20642 -11.46134,2.87032 z"
          inkscape:connector-curvature="0"/>
      <path
          style="fill:#ff0000;fill-opacity:0;stroke:none"
          d="m 98,1117.3735 c -10.84945,-2.3386 -20.491,-7.7526 -29.11526,-16.3491 -8.7861,-8.7579 -12.94408,-16.1841 -17.716096,-31.6412 -10.714724,-34.7062 -11.51855,-52.3047 -4.04,-88.44961 5.357473,-25.89345 5.318293,-28.66998 -0.687281,-48.70412 -1.944809,-6.48773 -3.778405,-12.73632 -4.074657,-13.88575 -0.447772,-1.73732 0.284073,-2.4438 4.338137,-4.18781 11.496567,-4.94569 20.973617,-3.64127 27.708857,3.81383 4.46358,4.94065 5.25546,6.87821 12.15119,29.7312 3.10885,10.30296 6.81808,20.90325 8.24274,23.5562 3.00332,5.59269 8.2348,10.0745 14.22777,12.18894 8.97085,3.1651 11.65152,2.56682 67.76984,-15.12499 33.63243,-10.60293 54.32993,-16.64137 57.21492,-16.69231 5.98925,-0.10574 10.48601,2.65325 13.08932,8.03096 4.22127,8.71998 -0.56353,17.60286 -11.14143,20.68387 -3.00743,0.87597 -17.61805,5.3261 -32.46805,9.88918 -22.69694,6.97428 -27.03811,8.60763 -27.23915,10.24861 -0.15503,1.2655 0.88716,2.6557 2.96269,3.9522 7.85694,4.9078 10.15296,14.7691 5.34778,22.9685 -2.649,4.5202 -2.37819,5.8547 1.42868,7.0408 4.37562,1.3633 6.84564,3.5404 8.95089,7.8893 3.29746,6.8116 2.28703,14.6693 -2.38495,18.5467 -2.62187,2.1759 -1.87255,4.8997 1.76616,6.4201 8.82115,3.6857 12.3593,16.672 6.55332,24.0531 -1.13411,1.4418 -3.25978,3.2307 -4.72372,3.9754 -3.74388,1.9044 -67.51434,21.3599 -74.04819,22.5911 -7.22107,1.3607 -16.21532,1.1574 -24.11351,-0.5451 z"
          inkscape:connector-curvature="0"/>
      <path
          style="fill:#ff0000;fill-opacity:0;stroke:none"
          d="m 254.5,932.73353 c -10.57232,-5.41843 -21.66313,-9.43404 -34.5,-12.49127 -8.32902,-1.98365 -14.11831,-2.60841 -28,-3.02167 -18.50829,-0.551 -25.91068,0.1591 -41.30222,3.96204 -9.68202,2.39224 -11.96686,1.953 -12.49511,-2.40208 -0.43501,-3.58631 2.27339,-5.43034 11.29733,-7.69188 12.88266,-3.22859 22.94673,-4.35633 38.45266,-4.30886 25.1263,0.0769 48.36781,5.51425 70.04734,16.38754 9.24347,4.63603 10.53856,5.60257 10.82226,8.07671 0.39057,3.40626 -1.32078,5.70707 -4.1947,5.63954 C 263.4574,936.85611 258.9,934.98857 254.5,932.73353 z"
          inkscape:connector-curvature="0"/>
      <path
          style="fill:none;fill-opacity:1;stroke:none"
          d="m 260.5,843.12606 c -20.77375,-9.81856 -23.26465,-47.75811 -4.44217,-67.6601 6.60865,-6.98767 11.7988,-9.53237 19.44217,-9.53237 10.3726,0 17.22265,4.85076 22.22912,15.74122 9.31186,20.25586 1.27804,49.55177 -16.43528,59.93247 -5.94219,3.48235 -15.20755,4.15909 -20.79384,1.51878 z"
          inkscape:connector-curvature="0"/>
      <path
          style="fill:#ffffff;fill-opacity:1;stroke:none;stroke-width:0.52037054"
          d="M 91.521484 61.447266 C 91.026626 61.43549 90.507308 61.442915 89.957031 61.470703 C 86.686133 61.635874 85.85028 61.896013 83.529297 63.474609 C 74.682961 69.491368 71.09582 84.169335 75.958984 94.449219 C 77.439184 97.578108 80.976206 101.00556 83.585938 101.8418 C 88.322975 103.35969 92.888512 102.00543 97.037109 97.851562 C 102.99931 91.881798 105.5627 82.208214 103.5 73.458984 C 102.58079 69.560009 101.70517 67.761598 99.513672 65.265625 C 97.190175 62.619312 94.985491 61.529692 91.521484 61.447266 z M 90.337891 66.521484 C 93.002762 66.428975 95.579543 68.047112 97.369141 71.691406 C 98.647561 74.294753 98.820444 75.228037 98.792969 79.339844 C 98.745277 86.471002 95.829445 93.079394 91.568359 95.712891 C 86.765032 98.681511 82.268658 96.702063 80.144531 90.681641 C 78.882185 87.10377 78.680607 83.699769 79.498047 79.779297 C 81.207224 71.582039 85.896438 66.675666 90.337891 66.521484 z "
          transform="matrix(1.9217074,0,0,1.9217074,-36.411729,629.96564)"/>
      <path
          style="fill:#ffffff;fill-opacity:1;stroke:none"
          d="m 247.04568,756.48863 c -0.65956,-0.79472 -1.05216,-2.48222 -0.87244,-3.75 0.43736,-3.08522 6.49317,-5.89078 19.82676,-9.18542 21.34959,-5.27534 44.74928,-5.45995 67.78573,-0.5348 10.90193,2.33081 13.85132,4.24085 12.83028,8.30897 -0.88867,3.54075 -4.23498,4.14605 -12.36462,2.23659 -13.35854,-3.13759 -19.98133,-3.88749 -34.25139,-3.87827 -15.27213,0.01 -28.10829,1.98452 -40.40755,6.21608 -6.96331,2.39573 -10.89299,2.57954 -12.54677,0.58685 z"
          inkscape:connector-curvature="0"/>
      <path
          style="fill:#ffffff;fill-opacity:1;stroke:none"
          d="m 74,737.2047 c -2.03511,-0.77469 -2.9664,-2.33684 -2.98469,-5.00649 -0.0344,-5.02234 20.73111,-17.5896 34.48469,-20.87007 9.45127,-2.2543 26.82196,-2.2379 36,0.034 14.81155,3.66637 34.5,15.70347 34.5,21.09257 0,2.05189 -3.18114,5.4789 -5.08582,5.4789 -0.35245,0 -3.57187,-2.16366 -7.15426,-4.80813 -12.26511,-9.05393 -25.43649,-13.44607 -40.35726,-13.45758 -5.00354,-0.004 -11.52854,0.56061 -14.5,1.25437 -7.42071,1.73256 -18.13845,6.87184 -25.84794,12.39439 -3.54491,2.53932 -6.69491,4.58142 -7,4.538 C 75.74962,737.81124 74.825,737.51875 74,737.2047 z"
          inkscape:connector-curvature="0"/>
    </g>
  </g>
</svg>
