<?xml version="1.0" encoding="UTF-8" standalone="no"?>
<!-- Created with Inkscape (http://www.inkscape.org/) -->

<svg
   xmlns:i="http://ns.adobe.com/AdobeIllustrator/10.0/"
   xmlns:dc="http://purl.org/dc/elements/1.1/"
   xmlns:cc="http://creativecommons.org/ns#"
   xmlns:rdf="http://www.w3.org/1999/02/22-rdf-syntax-ns#"
   xmlns:svg="http://www.w3.org/2000/svg"
   xmlns="http://www.w3.org/2000/svg"
   xmlns:xlink="http://www.w3.org/1999/xlink"
   xmlns:sodipodi="http://sodipodi.sourceforge.net/DTD/sodipodi-0.dtd"
   xmlns:inkscape="http://www.inkscape.org/namespaces/inkscape"
   width="86"
   height="86"
   version="1.1"
   inkscape:version="0.92.4 (unknown)"
   sodipodi:docname="harbour-matkakortti.svg"
   inkscape:export-filename="harbour-matkakortti.png"
   inkscape:export-xdpi="96"
   inkscape:export-ydpi="96">
  <defs>
    <linearGradient
        inkscape:collect="always"
        id="linearGradient1416">
      <stop
          style="stop-color:#005cbc;stop-opacity:1"
          offset="0"/>
      <stop
          style="stop-color:#019bdb;stop-opacity:1"
          offset="1"/>
    </linearGradient>
    <linearGradient
        inkscape:collect="always"
        xlink:href="#linearGradient1416"
        id="linearGradient1418"
        x1="12"
        y1="1040.3622"
        x2="74"
        y2="978.36218"
        gradientUnits="userSpaceOnUse" />
  </defs>
  <metadata>
    <rdf:RDF>
      <cc:Work rdf:about="">
        <dc:format>image/svg+xml</dc:format>
        <dc:type rdf:resource="http://purl.org/dc/dcmitype/StillImage" />
        <dc:title/>
      </cc:Work>
    </rdf:RDF>
  </metadata>
  <g
      inkscape:label="Layer 1"
      inkscape:groupmode="layer"
      transform="translate(0,-966.36216)">
    <path
        style="opacity:1;fill:url(#linearGradient1418);fill-opacity:1;stroke:none;stroke-width:0;stroke-linecap:square;stroke-linejoin:round;stroke-miterlimit:4;stroke-dasharray:none;stroke-dashoffset:0;stroke-opacity:1;paint-order:markers fill stroke"
        sodipodi:type="arc"
        sodipodi:cx="43"
        sodipodi:cy="1009.3622"
        sodipodi:rx="43"
        sodipodi:ry="43"
        sodipodi:start="0.0078639649"
        sodipodi:end="0.0063704518"
        sodipodi:open="true"
        d="M 85.99867,1009.7003 A 43,43 0 0 1 42.677908,1052.361 43,43 0 0 1 0.00108907,1009.0561 43,43 0 0 1 43.289982,966.36316 43,43 0 0 1 85.999127,1009.6361"/>
    <path
        inkscape:connector-curvature="0"
        style="fill:#ffffff;fill-opacity:1;stroke-width:0.15048139"
        i:knockout="Off"
        d="m 42.841269,1022.9463 c -0.409313,-0.074 -0.72212,-0.2401 -1.027214,-0.545 -0.466639,-0.4672 -0.704119,-1.0609 -0.740573,-1.8528 -0.0189,-0.4098 0.02133,-0.711 0.148084,-1.111 0.09424,-0.2973 0.309026,-0.712 0.496287,-0.9577 0.07987,-0.1048 0.140068,-0.1957 0.133867,-0.2018 -0.01452,-0.014 -4.171175,-1.718 -4.17858,-1.7125 -0.0031,0 -0.02508,0.133 -0.04888,0.2905 -0.173952,1.152 -1.012693,2.1654 -2.092849,2.529 -0.821492,0.2766 -1.569786,0.1278 -2.120222,-0.4212 -0.818168,-0.8163 -0.682486,-2.1643 0.323702,-3.2127 0.321277,-0.3346 0.828148,-0.6475 1.304926,-0.8051 0.202693,-0.067 0.322033,-0.093 0.70049,-0.1521 l 0.12948,-0.02 -0.857654,-2.0462 c -0.471783,-1.1255 -0.864301,-2.0623 -0.872317,-2.0818 -0.0097,-0.024 -0.07064,0.01 -0.183177,0.099 -0.383293,0.3056 -0.959751,0.5497 -1.503841,0.6362 -0.319305,0.051 -0.546652,0.054 -0.892137,0.012 -1.331846,-0.1613 -2.215211,-1.0321 -2.158037,-2.1273 0.03808,-0.7307 0.454692,-1.3133 1.193149,-1.669 0.400987,-0.193 0.734973,-0.2684 1.262721,-0.285 0.375586,-0.012 0.481771,-0.01 0.734527,0.047 0.510959,0.1043 0.932672,0.2889 1.328371,0.5813 0.114202,0.084 0.210709,0.1493 0.214336,0.144 0.0037,-0.01 0.396757,-0.9428 0.873535,-2.0837 l 0.867029,-2.0744 -0.217064,-0.02 c -0.703814,-0.066 -1.568275,-0.5156 -2.037481,-1.0605 -0.920878,-1.069 -0.991364,-2.3486 -0.172441,-3.13766 0.195734,-0.18881 0.405378,-0.3168 0.679916,-0.41548 0.188776,-0.068 0.2452,-0.0748 0.618361,-0.0756 0.304489,-2.3e-4 0.456809,0.0121 0.589159,0.0484 1.190271,0.3258 2.143365,1.42354 2.296743,2.64524 0.01451,0.1164 0.03272,0.2179 0.04027,0.2252 0.0076,0.01 0.942201,-0.367 2.077112,-0.8321 1.13491,-0.4652 2.078627,-0.8517 2.097233,-0.8592 0.02103,-0.01 -0.01271,-0.07 -0.08985,-0.1636 -0.472237,-0.57354 -0.725598,-1.37087 -0.685362,-2.15596 0.05778,-1.12667 0.647395,-2.02494 1.506104,-2.29421 0.285127,-0.0894 0.847818,-0.0894 1.132944,0 0.86839,0.27229 1.455736,1.17669 1.506862,2.32073 0.03601,0.80376 -0.240958,1.63308 -0.72923,2.18344 l -0.08289,0.093 2.099503,0.8609 c 1.461634,0.5995 2.105703,0.8512 2.120072,0.8282 0.01135,-0.018 0.02859,-0.1184 0.03842,-0.2229 0.02239,-0.2394 0.133413,-0.6209 0.258051,-0.8881 0.391614,-0.8387 1.169247,-1.50523 2.031586,-1.74126 0.132353,-0.0363 0.284673,-0.0484 0.589312,-0.0484 0.373161,3.7e-4 0.429581,0.008 0.618355,0.0748 0.567531,0.20392 0.993784,0.63712 1.166524,1.18586 0.284672,0.9044 -0.184236,2.0901 -1.097246,2.7744 -0.456808,0.3423 -1.104205,0.6069 -1.598828,0.6533 l -0.216606,0.02 0.862793,2.0605 c 0.474505,1.1331 0.871716,2.0694 0.882758,2.0802 0.01105,0.011 0.08365,-0.03 0.161395,-0.091 0.362875,-0.2867 0.867633,-0.5128 1.375265,-0.6165 3.992585,-0.6314 3.698629,4.5754 0.139764,4.0225 -0.544841,-0.087 -1.120691,-0.3304 -1.505046,-0.6372 l -0.169715,-0.1349 -0.0425,0.1062 c -0.02344,0.059 -0.415362,0.9957 -0.871111,2.0827 l -0.828457,1.9761 0.129328,0.02 c 0.378607,0.059 0.4978,0.085 0.700338,0.1515 0.49054,0.1614 1.001197,0.4807 1.333668,0.8339 0.985012,1.0461 1.107381,2.3738 0.293749,3.1856 -0.242623,0.2421 -0.475413,0.3824 -0.796541,0.4803 -0.276656,0.084 -0.788371,0.09 -1.090438,0.012 -0.6356,-0.1646 -1.278156,-0.5892 -1.673854,-1.106 -0.344573,-0.4502 -0.594003,-1.0421 -0.660557,-1.5684 -0.01422,-0.1131 -0.03025,-0.209 -0.03539,-0.2135 -0.0053,-0.01 -0.939935,0.3742 -2.077114,0.8416 -1.137179,0.4675 -2.080293,0.8549 -2.095872,0.8613 -0.01558,0.01 0.01073,0.06 0.05839,0.1207 0.580086,0.7311 0.818322,1.6231 0.678558,2.5411 -0.09015,0.592 -0.324909,1.0833 -0.69444,1.4534 -0.265917,0.2663 -0.488725,0.4045 -0.806977,0.5007 -0.222505,0.067 -0.635749,0.096 -0.842524,0.059 z m 0.61064,-1.2855 c 0.426253,-0.2254 0.66585,-1.027 0.500825,-1.6753 -0.11148,-0.4373 -0.38027,-0.8581 -0.690506,-1.081 -0.107849,-0.077 -0.111177,-0.078 -0.193917,-0.031 -0.145664,0.084 -0.428522,0.4055 -0.536221,0.6093 -0.17894,0.3387 -0.236571,0.5696 -0.234302,0.9389 0.0029,0.4811 0.128572,0.8603 0.364691,1.1003 0.243832,0.248 0.49795,0.2925 0.78943,0.1382 z m -8.309824,-3.4274 c 0.462709,-0.159 0.914221,-0.5875 1.130982,-1.0742 0.135079,-0.3027 0.187408,-0.691 0.133711,-0.9896 -0.01935,-0.108 -0.03037,-0.1202 -0.12509,-0.14 -0.435025,-0.09 -1.016931,0.063 -1.44938,0.3805 -0.459687,0.3383 -0.794119,0.9839 -0.712292,1.3752 0.09318,0.4459 0.503849,0.626 1.022069,0.4481 z m 16.680603,0.01 c 0.283463,-0.1319 0.428976,-0.4746 0.342304,-0.8058 -0.130992,-0.5 -0.526842,-0.9741 -1.019045,-1.2199 -0.356522,-0.178 -0.816658,-0.254 -1.135818,-0.1877 -0.122371,0.025 -0.13795,0.073 -0.13795,0.4242 0,0.2914 0.05355,0.4989 0.210857,0.8162 0.360606,0.7281 1.226121,1.212 1.739652,0.973 z m -5.731578,-1.9647 2.860645,-1.1735 1.198441,-2.8565 c 1.057919,-2.5213 1.195869,-2.8667 1.175449,-2.945 -0.01271,-0.049 -0.551649,-1.3494 -1.197835,-2.8903 l -1.174693,-2.8017 -2.889688,-1.1842 c -1.589299,-0.6514 -2.902395,-1.1841 -2.917975,-1.1841 -0.01558,0 -1.328373,0.5329 -2.917369,1.1841 l -2.88893,1.1842 -1.189666,2.8399 c -0.654205,1.5618 -1.192848,2.8625 -1.196928,2.8903 -0.0037,0.028 0.531374,1.3359 1.189667,2.9067 l 1.197078,2.856 2.88893,1.187 c 1.716963,0.7052 2.911773,1.1812 2.945503,1.1737 0.03116,-0.01 1.343954,-0.5411 2.917371,-1.1866 z m -13.503064,-6.1767 c 0.396757,-0.1303 0.697014,-0.3394 0.923748,-0.6431 l 0.07593,-0.1018 -0.110568,-0.1385 c -0.535311,-0.6701 -1.512613,-0.8993 -2.313387,-0.5423 -0.628939,0.2804 -0.727108,0.8888 -0.201024,1.2472 0.438653,0.2993 1.052171,0.3664 1.625297,0.1785 z m 20.985034,-1.4472 c -0.319766,0.1335 -0.615179,0.3596 -0.784893,0.6006 l -0.08107,0.1152 0.151866,0.1823 c 0.252757,0.3031 0.717581,0.5591 1.157902,0.6376 2.768592,0.139 1.572834,-2.3132 -0.443799,-1.5357 z m -17.290938,-5.9659 c 0.09605,-0.016 0.105883,-0.026 0.124333,-0.1327 0.146427,-0.8435 -0.431844,-1.7828 -1.279667,-2.0789 -0.423224,-0.1478 -0.78141,-0.044 -0.953246,0.2768 -0.08606,0.1607 -0.08365,0.4718 0.0053,0.6995 0.276654,0.7066 1.047939,1.2469 1.786237,1.2512 0.11693,0 0.259413,-0.01 0.316744,-0.016 z m 14.450408,-0.037 c 0.604137,-0.1528 1.158509,-0.6345 1.379046,-1.1976 0.08924,-0.2279 0.09166,-0.539 0.0056,-0.6995 -0.224925,-0.4194 -0.762656,-0.4563 -1.329129,-0.091 -0.539397,0.3479 -0.880944,0.9119 -0.909834,1.503 -0.007,0.1422 -0.0041,0.3148 0.0064,0.3837 0.02193,0.1443 0.02526,0.1456 0.400992,0.1525 0.147933,0 0.306152,-0.015 0.446976,-0.052 z m -7.396961,-2.90189 c 0.30706,-0.23845 0.569044,-0.70357 0.647396,-1.14942 0.06277,-0.35661 -0.01179,-0.8515 -0.17652,-1.17177 -0.135228,-0.26316 -0.424438,-0.46784 -0.661163,-0.46784 -0.342152,0 -0.662069,0.33312 -0.793665,0.82642 -0.1499,0.56136 -0.03388,1.17548 0.312958,1.65631 0.12479,0.17309 0.41022,0.43208 0.47617,0.43208 0.01815,0 0.105732,-0.057 0.194824,-0.12578 z"
        sodipodi:nodetypes="ccccccccccccccccccccccccscccccccccssccccccccccccccccccccscccccccccccccccccscccccccccccccccccccccccccscccccccccscccsccccccccccccccccccccccccccccccccccccsccsc"/>
    <path
        style="fill:none;fill-rule:evenodd;stroke:#ffffff;stroke-width:1.5;stroke-linecap:butt;stroke-linejoin:miter;stroke-miterlimit:4;stroke-dasharray:none;stroke-opacity:1"
        d="m 22.622245,1029.6881 -8.404101,-20.2893 c 0,0 -2.401159,-5.7969 3.743793,-8.3422 l 36.869708,-15.27194 c 6.144952,-2.54533 8.546111,3.25158 8.546111,3.25158 l 8.404101,20.28936 c 0,0 2.401159,5.7969 -3.743794,8.3422 l -36.869708,15.2719 c -6.144951,2.5453 -8.54611,-3.2516 -8.54611,-3.2516 z"
        inkscape:connector-curvature="0"
        sodipodi:nodetypes="ccssccssc"/>
  </g>
</svg>
